#!OML:ASF X:\für Bonn\!DataBase\2005_08_11_Bastian_Final\c3d\Bastian.ASF
:FULLY-SPECIFIED
:DEGREES
81
root -0.879511 17.6606 -4.53574 126.351 21.7473 -189.845
lowerback 53.5921 3.0325 -5.4155
upperback 18.2095 11.7812 -6.77195
thorax 0.831292 10.992 -8.98944
lowerneck -19.2496 1.04868 -0.619511
upperneck -9.48243 -0.34605 2.65071
head 0.149971 -0.933679 0.924002
rclavicle 2.8625e-014 1.16885e-013
rhumerus -25.1151 37.3825 -82.1016
rradius 124.55
rwrist 6.8078
rhand -18.3012 16.4823
rfingers 7.12502
rthumb 7.97965 -13.3471
lclavicle 2.8625e-014 1.16885e-013
lhumerus -53.0772 -5.76262 105.096
lradius 16.6592
lwrist 24.4909
lhand 8.63994 -6.7737
lfingers 7.12502
lthumb 33.8353 20.0465
rfemur 34.6495 3.79357 17.4178
rtibia 41.9801
rfoot -172.947 -173.168
rtoes 8.0787
lfemur -58.4839 8.09333 20.8504
ltibia 27.0099
lfoot -16.4178 27.3734
ltoes -35.9197
82
root -0.883042 17.6627 -4.57832 126.025 22.1675 -190.237
lowerback 52.9413 3.15758 -5.50146
upperback 18.4391 11.9271 -6.86726
thorax 1.18379 11.0678 -9.0055
lowerneck -19.0641 -1.21333 0.305645
upperneck -9.20732 0.295925 2.78741
head 0.200428 1.01342 0.851868
rclavicle 3.37934e-014 -1.31198e-013
rhumerus -26.0132 36.9525 -82.83
rradius 124.288
rwrist 6.94003
rhand -17.9422 16.3023
rfingers 7.12502
rthumb 8.32615 -13.5136
lclavicle 3.37934e-014 -1.31198e-013
lhumerus -53.733 -5.58989 106.394
lradius 17.0125
lwrist 24.07
lhand 8.88258 -6.97173
lfingers 7.12502
lthumb 34.0657 19.7974
rfemur 35.5517 4.43897 17.7246
rtibia 41.1016
rfoot -173.932 -173.311
rtoes 7.4849
lfemur -58.2497 9.25934 20.8038
ltibia 24.8849
lfoot -19.5675 28.2242
ltoes -26.7749
83
root -0.887982 17.6607 -4.62409 125.787 22.5569 -190.609
lowerback 52.2095 3.26575 -5.53932
upperback 18.638 12.0329 -6.92231
thorax 1.5 11.0983 -8.98554
lowerneck -18.7928 -1.10488 0.335905
upperneck -9.0184 0.354807 2.60224
head 0.218923 1.00637 0.790074
rclavicle 2.70347e-014 1.82882e-014
rhumerus -27.0512 36.5218 -83.602
rradius 123.982
rwrist 7.10323
rhand -17.5607 16.0297
rfingers 7.12502
rthumb 8.69432 -13.7712
lclavicle 2.70347e-014 1.82882e-014
lhumerus -54.3467 -5.12598 107.43
lradius 17.4284
lwrist 23.4634
lhand 8.74338 -7.2205
lfingers 7.12502
lthumb 33.9335 19.578
rfemur 36.3113 4.92856 17.8961
rtibia 40.3108
rfoot -174.93 -173.414
rtoes 6.71372
lfemur -58.4357 10.3377 20.56
ltibia 24.0123
lfoot -22.2331 28.4265
ltoes -15.8555
84
root -0.89469 17.6573 -4.67183 125.642 22.9451 -190.955
lowerback 51.4389 3.34242 -5.49556
upperback 18.7935 12.103 -6.98149
thorax 1.77404 11.0989 -8.99959
lowerneck -18.4679 -0.99437 0.349457
upperneck -8.84407 0.420317 2.43916
head 0.224128 1.00263 0.738092
rclavicle -9.54166e-015 2.06736e-014
rhumerus -28.2142 36.0184 -84.4344
rradius 123.648
rwrist 7.31393
rhand -17.1925 15.8438
rfingers 7.12502
rthumb 9.04964 -13.9421
lclavicle -9.54166e-015 2.06736e-014
lhumerus -54.8949 -4.48191 108.141
lradius 17.8878
lwrist 22.7361
lhand 8.31055 -7.49962
lfingers 7.12502
lthumb 33.5222 19.3889
rfemur 36.9067 5.31339 17.9697
rtibia 39.6727
rfoot -175.871 -173.514
rtoes 6.10427
lfemur -58.9401 11.3434 20.1579
ltibia 24.1954
lfoot -24.4214 28.116
ltoes -8.48844
85
root -0.904667 17.6499 -4.72442 125.594 23.2953 -191.303
lowerback 50.6667 3.42737 -5.43847
upperback 18.8847 12.1469 -7.03041
thorax 1.97468 11.0666 -9.01202
lowerneck -18.0724 -0.895172 0.354954
upperneck -8.71263 0.475893 2.27792
head 0.204038 0.994242 0.686707
rclavicle 1.27222e-014 6.20208e-014
rhumerus -29.4284 35.4887 -85.2835
rradius 123.256
rwrist 7.5668
rhand -16.8808 15.6963
rfingers 7.12502
rthumb 9.35031 -14.0763
lclavicle 1.27222e-014 6.20208e-014
lhumerus -55.3983 -3.77907 108.637
lradius 18.3642
lwrist 22.1713
lhand 7.65632 -7.78536
lfingers 7.12502
lthumb 32.9002 19.2359
rfemur 37.3277 5.64614 17.8988
rtibia 39.1614
rfoot -176.612 -173.672
rtoes 6.07094
lfemur -59.7433 12.2682 19.5692
ltibia 25.3536
lfoot -25.4083 27.4974
ltoes -4.33881
86
root -0.918027 17.6384 -4.77997 125.604 23.6409 -191.637
lowerback 49.9559 3.50234 -5.35039
upperback 18.9198 12.1648 -7.08288
thorax 2.10815 11.0139 -9.0494
lowerneck -17.7102 -0.800683 0.346041
upperneck -8.55712 0.528591 2.11968
head 0.19718 0.986051 0.639129
rclavicle -1.31198e-014 -4.53229e-014
rhumerus -30.6769 34.9034 -86.1501
rradius 122.802
rwrist 7.86213
rhand -16.6454 15.7089
rfingers 7.12502
rthumb 9.57752 -14.0534
lclavicle -1.31198e-014 -4.53229e-014
lhumerus -55.8415 -3.13924 109.003
lradius 18.8739
lwrist 21.9122
lhand 6.93136 -7.99928
lfingers 7.12502
lthumb 32.2104 19.1643
rfemur 37.6357 6.01705 17.8644
rtibia 38.7701
rfoot -177.188 -173.98
rtoes 6.47687
lfemur -60.6895 13.1086 18.8784
ltibia 27.2582
lfoot -24.6539 26.854
ltoes -2.74842
